<svg xmlns="http://www.w3.org/2000/svg" xmlns:xlink="http://www.w3.org/1999/xlink" width="500" zoomAndPan="magnify" viewBox="0 0 375 374.999991" height="500" preserveAspectRatio="xMidYMid meet" version="1.0"><defs><g/><clipPath id="1a5fcfeb34"><path d="M 59 107 L 316 107 L 316 187.246094 L 59 187.246094 Z M 59 107 " clip-rule="nonzero"/></clipPath><clipPath id="058e9b1494"><path d="M 117.097656 83 L 171 83 L 171 231 L 117.097656 231 Z M 117.097656 83 " clip-rule="nonzero"/></clipPath><clipPath id="b7b13ef3f7"><path d="M 199 66 L 252.984375 66 L 252.984375 214 L 199 214 Z M 199 66 " clip-rule="nonzero"/></clipPath></defs><g clip-path="url(#1a5fcfeb34)"><path fill="#38b6ff" d="M 170.074219 107.894531 C 170.460938 107.816406 170.839844 107.679688 171.226562 107.671875 C 174.921875 107.640625 178.625 107.652344 182.320312 107.609375 C 184 107.589844 185.679688 107.441406 187.355469 107.410156 C 190.042969 107.359375 192.730469 107.371094 195.417969 107.351562 C 195.976562 107.34375 196.539062 107.308594 197.097656 107.304688 C 200.21875 107.28125 203.339844 107.292969 206.460938 107.238281 C 208.796875 107.195312 211.140625 107.015625 213.480469 107.011719 C 215.402344 107.007812 217.335938 107.191406 219.257812 107.246094 C 221.328125 107.296875 223.394531 107.234375 225.457031 107.324219 C 230.34375 107.53125 235.238281 107.730469 240.117188 108.058594 C 244.804688 108.371094 249.511719 108.613281 254.148438 109.296875 C 259.78125 110.128906 265.46875 110.667969 271 112.167969 C 274.746094 113.183594 278.601562 113.808594 282.300781 114.941406 C 286.242188 116.144531 290.085938 117.691406 293.921875 119.207031 C 296.0625 120.058594 298.199219 121.011719 300.179688 122.179688 C 303.023438 123.867188 305.785156 125.675781 308.269531 127.929688 C 310.6875 130.117188 312.605469 132.609375 314.074219 135.488281 C 315.203125 137.703125 315.90625 140.035156 315.574219 142.554688 C 315.25 144.976562 314.578125 147.238281 313.136719 149.316406 C 310.308594 153.382812 306.65625 156.480469 302.664062 159.339844 C 297.71875 162.878906 292.292969 165.433594 286.761719 167.800781 C 283.613281 169.152344 280.328125 170.191406 277.082031 171.304688 C 273.835938 172.414062 270.585938 173.515625 267.292969 174.464844 C 264.53125 175.265625 261.707031 175.832031 258.914062 176.523438 C 258.132812 176.71875 257.375 177.042969 256.589844 177.226562 C 253.445312 177.960938 250.308594 178.753906 247.140625 179.359375 C 243.277344 180.09375 239.378906 180.648438 235.496094 181.316406 C 233.894531 181.589844 232.316406 182.011719 230.714844 182.246094 C 228.632812 182.546875 226.519531 182.664062 224.4375 182.960938 C 222.140625 183.289062 219.878906 183.816406 217.582031 184.109375 C 215.171875 184.414062 212.738281 184.523438 210.316406 184.757812 C 209.511719 184.832031 208.730469 185.066406 207.925781 185.132812 C 203.25 185.535156 198.570312 185.953125 193.890625 186.277344 C 189.699219 186.566406 185.507812 186.746094 181.316406 186.957031 C 178.640625 187.09375 175.96875 187.257812 173.292969 187.300781 C 168.722656 187.375 164.148438 187.511719 159.589844 187.332031 C 156.867188 187.226562 154.152344 187.308594 151.441406 187.238281 C 149.574219 187.1875 147.710938 186.949219 145.839844 186.824219 C 144.554688 186.742188 143.257812 186.714844 141.972656 186.683594 C 141.226562 186.660156 140.464844 186.789062 139.742188 186.671875 C 136.871094 186.210938 133.960938 186.457031 131.082031 186.105469 C 128.164062 185.753906 125.246094 185.460938 122.320312 185.140625 C 120.589844 184.949219 118.851562 184.800781 117.125 184.53125 C 113.992188 184.039062 110.886719 183.3125 107.734375 182.980469 C 105.03125 182.695312 102.472656 181.902344 99.859375 181.289062 C 96.539062 180.511719 93.199219 179.800781 89.910156 178.914062 C 87.953125 178.386719 86.070312 177.558594 84.152344 176.882812 C 83.679688 176.71875 83.195312 176.601562 82.710938 176.476562 C 82.171875 176.332031 81.585938 176.289062 81.09375 176.058594 C 78.667969 174.925781 76.226562 173.816406 73.863281 172.558594 C 71.519531 171.308594 69.285156 169.929688 67.316406 168.050781 C 65.960938 166.761719 64.488281 165.605469 63.3125 164.132812 C 59.550781 159.410156 59.070312 154.167969 61.425781 148.800781 C 62.261719 146.890625 63.292969 144.875 65.105469 143.457031 C 66.0625 142.710938 66.671875 141.53125 67.554688 140.671875 C 70.707031 137.601562 74.195312 134.984375 78.160156 133.035156 C 78.496094 132.871094 78.8125 132.664062 79.140625 132.476562 C 81.402344 131.1875 83.628906 129.839844 85.929688 128.621094 C 87.292969 127.898438 88.746094 127.34375 90.183594 126.769531 C 92.910156 125.6875 95.621094 124.578125 98.382812 123.601562 C 101.390625 122.539062 104.445312 121.59375 107.492188 120.652344 C 109.441406 120.050781 111.414062 119.5 113.398438 119.003906 C 114.238281 118.789062 115.148438 118.832031 115.996094 118.632812 C 118.433594 118.058594 120.835938 117.351562 123.28125 116.84375 C 126.222656 116.230469 129.195312 115.765625 132.152344 115.253906 C 133.691406 114.988281 135.234375 114.734375 136.785156 114.515625 C 140.621094 113.976562 144.449219 113.394531 148.300781 112.960938 C 152.65625 112.46875 157.019531 112.0625 161.394531 111.71875 C 165.25 111.417969 169.109375 111.242188 172.972656 111.027344 C 173.382812 111.003906 173.796875 111.070312 174.28125 111.421875 C 173.429688 111.675781 172.601562 112.019531 171.734375 112.175781 C 165.132812 113.371094 158.515625 114.492188 151.917969 115.707031 C 148.46875 116.339844 145.058594 117.144531 141.621094 117.828125 C 140.03125 118.144531 138.425781 118.347656 136.828125 118.625 C 136.339844 118.710938 135.871094 118.902344 135.382812 119 C 134.226562 119.25 133.0625 119.445312 131.910156 119.710938 C 130.878906 119.949219 129.867188 120.261719 128.839844 120.515625 C 126.164062 121.171875 123.441406 121.667969 120.828125 122.496094 C 118.851562 123.128906 116.746094 123.359375 114.867188 124.054688 C 111.699219 125.222656 108.433594 125.96875 105.257812 127.039062 C 103.375 127.675781 101.539062 128.464844 99.671875 129.152344 C 97.113281 130.09375 94.511719 130.921875 91.992188 131.960938 C 90.507812 132.574219 89.191406 133.578125 87.726562 134.261719 C 84.8125 135.621094 81.871094 136.921875 79.164062 138.671875 C 77.855469 139.515625 76.671875 140.546875 75.382812 141.417969 C 72.589844 143.300781 70.554688 145.96875 68.183594 148.296875 C 67.390625 149.078125 66.972656 150.332031 66.609375 151.445312 C 65 156.320312 66.511719 160.410156 70.667969 163.394531 C 71.773438 164.191406 72.585938 165.304688 73.917969 165.867188 C 75.734375 166.632812 77.449219 167.644531 79.199219 168.570312 C 79.851562 168.914062 80.425781 169.425781 81.105469 169.679688 C 83.25 170.476562 85.425781 171.203125 87.597656 171.921875 C 90.671875 172.941406 93.746094 173.980469 96.84375 174.910156 C 98.492188 175.40625 100.195312 175.742188 101.894531 176.058594 C 104.167969 176.488281 106.464844 176.839844 108.75 177.214844 C 111.695312 177.699219 114.65625 178.109375 117.59375 178.671875 C 119.964844 179.125 122.355469 179.375 124.765625 179.558594 C 125.25 179.597656 125.730469 179.769531 126.210938 179.886719 C 126.578125 179.976562 126.953125 180.179688 127.300781 180.140625 C 130.824219 179.78125 134.257812 180.511719 137.710938 180.980469 C 138.328125 181.066406 138.96875 181.019531 139.597656 181.054688 C 142.285156 181.210938 144.96875 181.425781 147.652344 181.515625 C 149.757812 181.589844 151.875 181.480469 153.980469 181.519531 C 156.164062 181.5625 158.34375 181.738281 160.527344 181.769531 C 162.84375 181.800781 165.160156 181.726562 167.480469 181.71875 C 168.863281 181.710938 170.242188 181.679688 171.621094 181.765625 C 174.242188 181.921875 176.832031 181.75 179.449219 181.558594 C 182.988281 181.300781 186.558594 181.488281 190.105469 181.363281 C 192.34375 181.285156 194.578125 180.933594 196.8125 180.757812 C 198.613281 180.621094 200.414062 180.5625 202.214844 180.46875 C 203.386719 180.40625 204.566406 180.378906 205.730469 180.261719 C 209.34375 179.890625 212.957031 179.496094 216.566406 179.078125 C 219.421875 178.746094 222.273438 178.316406 225.136719 178.015625 C 228.789062 177.628906 232.417969 177.140625 236.023438 176.421875 C 238.101562 176.003906 240.21875 175.789062 242.308594 175.402344 C 245.136719 174.875 247.957031 174.300781 250.765625 173.6875 C 254.476562 172.878906 258.195312 172.101562 261.871094 171.15625 C 265.742188 170.160156 269.589844 169.035156 273.417969 167.871094 C 280.132812 165.835938 286.664062 163.265625 292.976562 160.222656 C 298.339844 157.640625 303.4375 154.554688 307.613281 150.210938 C 309.6875 148.054688 311.273438 145.5 311.609375 142.5 C 311.871094 140.132812 311.339844 137.742188 310.035156 135.660156 C 307.269531 131.257812 303.390625 128.019531 298.878906 125.554688 C 295.640625 123.78125 292.363281 122.039062 288.941406 120.6875 C 285.046875 119.15625 280.984375 118.035156 276.976562 116.808594 C 275.019531 116.210938 273.015625 115.765625 271.019531 115.300781 C 266.683594 114.292969 262.367188 113.253906 257.910156 112.828125 C 254.109375 112.46875 250.332031 111.796875 246.539062 111.324219 C 244.359375 111.046875 242.164062 110.882812 239.980469 110.683594 C 236.058594 110.328125 232.136719 109.90625 228.207031 109.667969 C 225.03125 109.476562 221.835938 109.535156 218.652344 109.464844 C 213.953125 109.367188 209.253906 109.210938 204.554688 109.144531 C 199.75 109.074219 194.9375 109.105469 190.128906 109.039062 C 184.992188 108.964844 179.851562 108.820312 174.714844 108.714844 C 173.675781 108.695312 172.621094 108.738281 171.585938 108.667969 C 171.066406 108.628906 170.558594 108.402344 170.046875 108.265625 C 170.050781 108.136719 170.0625 108.015625 170.074219 107.894531 Z M 170.074219 107.894531 " fill-opacity="1" fill-rule="nonzero"/></g><g clip-path="url(#058e9b1494)"><path fill="#000000" d="M 169.761719 225.671875 C 162.941406 224.855469 155.074219 227.546875 148.816406 223.753906 C 142.734375 220.070312 143.351562 211.355469 143.632812 205.207031 C 144.265625 191.328125 147.582031 174.703125 138.070312 162.878906 C 135.816406 160.078125 132.957031 157.800781 129.753906 156.378906 C 131.816406 155.277344 133.71875 153.84375 135.375 152.191406 C 140.234375 147.339844 142.890625 140.792969 143.9375 134.0625 C 145.117188 126.46875 144.371094 118.816406 143.8125 111.207031 C 143.523438 107.289062 143.292969 103.351562 143.464844 99.421875 C 143.589844 96.582031 143.921875 93.179688 145.894531 90.964844 C 148.183594 88.386719 152.082031 87.738281 155.34375 87.660156 C 159.726562 87.558594 164.058594 88.25 168.4375 87.722656 C 170.164062 87.519531 171.628906 83.226562 169.226562 83.511719 C 162.355469 84.335938 155.292969 82.039062 148.722656 85.070312 C 142.410156 87.984375 140.390625 94.832031 140.101562 101.300781 C 139.757812 109.1875 141 117.027344 141.199219 124.902344 C 141.378906 131.847656 140.765625 139.253906 137.171875 145.359375 C 133.703125 151.242188 127.015625 155.234375 120.140625 154.269531 C 118.65625 154.058594 117.09375 156.980469 117.820312 158.121094 C 117.859375 158.78125 118.21875 159.246094 119.070312 159.128906 C 125.277344 158.257812 131.351562 161.664062 135.179688 166.414062 C 139.605469 171.917969 141.074219 179.164062 141.3125 186.082031 C 141.578125 193.8125 140.386719 201.492188 140.195312 209.207031 C 140.042969 215.457031 140.144531 223.242188 145.714844 227.296875 C 152.21875 232.035156 160.828125 229.074219 168.152344 229.953125 C 169.949219 230.175781 171.828125 225.921875 169.761719 225.671875 Z M 169.761719 225.671875 " fill-opacity="1" fill-rule="nonzero"/></g><g fill="#000000" fill-opacity="1"><g transform="translate(108.050776, 260.348815)"><g><path d="M 2.34375 -0.3125 C 2.894531 -0.3125 3.367188 -0.507812 3.765625 -0.90625 C 4.160156 -1.300781 4.367188 -1.78125 4.390625 -2.34375 L 4.390625 -20.09375 C 4.367188 -20.644531 4.160156 -21.113281 3.765625 -21.5 C 3.367188 -21.882812 2.894531 -22.078125 2.34375 -22.078125 L 1.921875 -22.078125 L 1.921875 -22.40625 L 8.921875 -22.40625 L 8.921875 -22.078125 L 8.515625 -22.078125 C 7.960938 -22.078125 7.488281 -21.882812 7.09375 -21.5 C 6.695312 -21.113281 6.488281 -20.644531 6.46875 -20.09375 L 6.46875 -2.34375 C 6.46875 -1.78125 6.671875 -1.300781 7.078125 -0.90625 C 7.484375 -0.507812 7.960938 -0.3125 8.515625 -0.3125 L 8.921875 -0.3125 L 8.921875 0 L 1.921875 0 L 1.921875 -0.3125 Z M 2.34375 -0.3125 "/></g></g></g><g fill="#000000" fill-opacity="1"><g transform="translate(118.864115, 260.348815)"><g><path d="M 23.265625 -18.875 C 22.796875 -18.875 22.390625 -18.71875 22.046875 -18.40625 C 21.703125 -18.101562 21.519531 -17.726562 21.5 -17.28125 L 21.5 -3.640625 C 21.5 -2.410156 21.578125 -1.238281 21.734375 -0.125 L 21.796875 0.453125 L 21.5 0.453125 L 4.859375 -15.328125 L 4.859375 -1.984375 C 4.859375 -1.515625 5.03125 -1.117188 5.375 -0.796875 C 5.71875 -0.472656 6.132812 -0.3125 6.625 -0.3125 L 7.171875 -0.3125 L 7.171875 0 L 1.125 0 L 1.125 -0.3125 L 1.65625 -0.3125 C 2.15625 -0.3125 2.570312 -0.472656 2.90625 -0.796875 C 3.25 -1.117188 3.421875 -1.515625 3.421875 -1.984375 L 3.421875 -15.6875 C 3.421875 -16.976562 3.347656 -18.140625 3.203125 -19.171875 L 3.140625 -19.6875 L 3.484375 -19.640625 L 20.09375 -4 L 20.09375 -17.28125 C 20.050781 -17.726562 19.859375 -18.101562 19.515625 -18.40625 C 19.179688 -18.71875 18.773438 -18.875 18.296875 -18.875 L 17.765625 -18.875 L 17.765625 -19.203125 L 23.8125 -19.203125 L 23.8125 -18.875 Z M 23.265625 -18.875 "/></g></g></g><g fill="#000000" fill-opacity="1"><g transform="translate(143.785992, 260.348815)"><g><path d="M 14.46875 -16.578125 C 14.46875 -17.296875 14.15625 -17.796875 13.53125 -18.078125 C 13.320312 -18.160156 13.097656 -18.203125 12.859375 -18.203125 L 6.109375 -18.203125 L 6.109375 -10.078125 L 11.6875 -10.078125 C 12.101562 -10.078125 12.414062 -10.203125 12.625 -10.453125 C 12.84375 -10.710938 12.953125 -11.035156 12.953125 -11.421875 L 12.953125 -11.84375 L 13.34375 -11.84375 L 13.34375 -7.359375 L 12.953125 -7.359375 L 12.953125 -7.78125 C 12.953125 -8.289062 12.785156 -8.660156 12.453125 -8.890625 C 12.253906 -9.023438 12.019531 -9.101562 11.75 -9.125 L 6.109375 -9.125 L 6.109375 -2.046875 C 6.128906 -1.472656 6.382812 -1.003906 6.875 -0.640625 C 7.195312 -0.421875 7.570312 -0.3125 8 -0.3125 L 8.453125 -0.3125 L 8.453125 0 L 1.765625 0 L 1.765625 -0.3125 L 2.203125 -0.3125 C 2.710938 -0.3125 3.148438 -0.476562 3.515625 -0.8125 C 3.878906 -1.144531 4.070312 -1.546875 4.09375 -2.015625 L 4.09375 -17.21875 C 4.070312 -17.875 3.765625 -18.351562 3.171875 -18.65625 C 2.867188 -18.800781 2.546875 -18.875 2.203125 -18.875 L 1.765625 -18.875 L 1.765625 -19.203125 L 11.203125 -19.203125 C 11.816406 -19.203125 12.5 -19.253906 13.25 -19.359375 C 14 -19.460938 14.519531 -19.582031 14.8125 -19.71875 L 14.8125 -16.0625 L 14.46875 -16.09375 Z M 14.46875 -16.578125 "/></g></g></g><g fill="#000000" fill-opacity="1"><g transform="translate(160.517883, 260.348815)"><g><path d="M 6.96875 -18.375 C 8.613281 -19.21875 10.421875 -19.640625 12.390625 -19.640625 C 14.367188 -19.640625 16.175781 -19.21875 17.8125 -18.375 C 19.457031 -17.539062 20.765625 -16.351562 21.734375 -14.8125 C 22.710938 -13.28125 23.203125 -11.539062 23.203125 -9.59375 C 23.203125 -7.65625 22.710938 -5.914062 21.734375 -4.375 C 20.765625 -2.84375 19.457031 -1.65625 17.8125 -0.8125 C 16.175781 0.03125 14.492188 0.453125 12.765625 0.453125 C 11.035156 0.453125 9.507812 0.207031 8.1875 -0.28125 C 6.863281 -0.78125 5.71875 -1.460938 4.75 -2.328125 C 3.78125 -3.203125 3.007812 -4.269531 2.4375 -5.53125 C 1.875 -6.789062 1.59375 -8.269531 1.59375 -9.96875 C 1.59375 -11.664062 2.078125 -13.28125 3.046875 -14.8125 C 4.023438 -16.351562 5.332031 -17.539062 6.96875 -18.375 Z M 6.375 -3.046875 C 7.988281 -1.359375 9.988281 -0.515625 12.375 -0.515625 C 14.769531 -0.515625 16.773438 -1.359375 18.390625 -3.046875 C 20.015625 -4.742188 20.828125 -6.925781 20.828125 -9.59375 C 20.828125 -12.257812 20.015625 -14.441406 18.390625 -16.140625 C 16.773438 -17.835938 14.769531 -18.6875 12.375 -18.6875 C 9.988281 -18.6875 7.988281 -17.835938 6.375 -16.140625 C 4.769531 -14.441406 3.96875 -12.257812 3.96875 -9.59375 C 3.96875 -6.925781 4.769531 -4.742188 6.375 -3.046875 Z M 6.375 -3.046875 "/></g></g></g><g fill="#000000" fill-opacity="1"><g transform="translate(185.279794, 260.348815)"><g><path d="M 21.40625 -18.875 L 21.15625 -18.875 C 20.6875 -18.875 20.226562 -18.71875 19.78125 -18.40625 C 19.332031 -18.101562 18.945312 -17.644531 18.625 -17.03125 C 13.96875 -7.039062 11.546875 -1.8125 11.359375 -1.34375 C 10.992188 -0.445312 10.800781 0.148438 10.78125 0.453125 L 10.5 0.453125 L 2.59375 -16.984375 C 1.96875 -18.242188 1.144531 -18.875 0.125 -18.875 L -0.125 -18.875 L -0.125 -19.203125 L 6.4375 -19.203125 L 6.4375 -18.875 L 6.171875 -18.875 C 5.765625 -18.875 5.457031 -18.726562 5.25 -18.4375 C 5.050781 -18.15625 4.953125 -17.894531 4.953125 -17.65625 C 4.953125 -17.425781 4.988281 -17.179688 5.0625 -16.921875 L 10.78125 -2.96875 L 16.671875 -16.859375 C 16.773438 -17.140625 16.828125 -17.398438 16.828125 -17.640625 C 16.828125 -17.890625 16.71875 -18.15625 16.5 -18.4375 C 16.289062 -18.726562 15.972656 -18.875 15.546875 -18.875 L 15.328125 -18.875 L 15.328125 -19.203125 L 21.40625 -19.203125 Z M 21.40625 -18.875 "/></g></g></g><g fill="#000000" fill-opacity="1"><g transform="translate(206.490582, 260.348815)"><g><path d="M 2.203125 -0.3125 C 2.785156 -0.3125 3.289062 -0.484375 3.71875 -0.828125 C 4.144531 -1.171875 4.359375 -1.578125 4.359375 -2.046875 L 4.359375 -17.15625 C 4.359375 -17.625 4.144531 -18.023438 3.71875 -18.359375 C 3.289062 -18.703125 2.773438 -18.875 2.171875 -18.875 L 1.765625 -18.875 L 1.765625 -19.203125 L 8.984375 -19.203125 L 8.984375 -18.875 L 8.578125 -18.875 C 8.003906 -18.875 7.507812 -18.710938 7.09375 -18.390625 C 6.675781 -18.078125 6.445312 -17.6875 6.40625 -17.21875 L 6.40625 -2.015625 C 6.425781 -1.546875 6.648438 -1.144531 7.078125 -0.8125 C 7.503906 -0.476562 8.003906 -0.3125 8.578125 -0.3125 L 8.984375 -0.3125 L 9.03125 0 L 1.765625 0 L 1.765625 -0.3125 Z M 2.203125 -0.3125 "/></g></g></g><g fill="#000000" fill-opacity="1"><g transform="translate(217.239936, 260.348815)"><g><path d="M 6.96875 -18.375 C 8.613281 -19.21875 10.421875 -19.640625 12.390625 -19.640625 C 14.367188 -19.640625 16.175781 -19.21875 17.8125 -18.375 C 19.457031 -17.539062 20.765625 -16.351562 21.734375 -14.8125 C 22.710938 -13.28125 23.203125 -11.539062 23.203125 -9.59375 C 23.203125 -7.65625 22.710938 -5.914062 21.734375 -4.375 C 20.765625 -2.84375 19.457031 -1.65625 17.8125 -0.8125 C 16.175781 0.03125 14.492188 0.453125 12.765625 0.453125 C 11.035156 0.453125 9.507812 0.207031 8.1875 -0.28125 C 6.863281 -0.78125 5.71875 -1.460938 4.75 -2.328125 C 3.78125 -3.203125 3.007812 -4.269531 2.4375 -5.53125 C 1.875 -6.789062 1.59375 -8.269531 1.59375 -9.96875 C 1.59375 -11.664062 2.078125 -13.28125 3.046875 -14.8125 C 4.023438 -16.351562 5.332031 -17.539062 6.96875 -18.375 Z M 6.375 -3.046875 C 7.988281 -1.359375 9.988281 -0.515625 12.375 -0.515625 C 14.769531 -0.515625 16.773438 -1.359375 18.390625 -3.046875 C 20.015625 -4.742188 20.828125 -6.925781 20.828125 -9.59375 C 20.828125 -12.257812 20.015625 -14.441406 18.390625 -16.140625 C 16.773438 -17.835938 14.769531 -18.6875 12.375 -18.6875 C 9.988281 -18.6875 7.988281 -17.835938 6.375 -16.140625 C 4.769531 -14.441406 3.96875 -12.257812 3.96875 -9.59375 C 3.96875 -6.925781 4.769531 -4.742188 6.375 -3.046875 Z M 6.375 -3.046875 "/></g></g></g><g fill="#000000" fill-opacity="1"><g transform="translate(242.001848, 260.348815)"><g><path d="M 23.265625 -18.875 C 22.796875 -18.875 22.390625 -18.71875 22.046875 -18.40625 C 21.703125 -18.101562 21.519531 -17.726562 21.5 -17.28125 L 21.5 -3.640625 C 21.5 -2.410156 21.578125 -1.238281 21.734375 -0.125 L 21.796875 0.453125 L 21.5 0.453125 L 4.859375 -15.328125 L 4.859375 -1.984375 C 4.859375 -1.515625 5.03125 -1.117188 5.375 -0.796875 C 5.71875 -0.472656 6.132812 -0.3125 6.625 -0.3125 L 7.171875 -0.3125 L 7.171875 0 L 1.125 0 L 1.125 -0.3125 L 1.65625 -0.3125 C 2.15625 -0.3125 2.570312 -0.472656 2.90625 -0.796875 C 3.25 -1.117188 3.421875 -1.515625 3.421875 -1.984375 L 3.421875 -15.6875 C 3.421875 -16.976562 3.347656 -18.140625 3.203125 -19.171875 L 3.140625 -19.6875 L 3.484375 -19.640625 L 20.09375 -4 L 20.09375 -17.28125 C 20.050781 -17.726562 19.859375 -18.101562 19.515625 -18.40625 C 19.179688 -18.71875 18.773438 -18.875 18.296875 -18.875 L 17.765625 -18.875 L 17.765625 -19.203125 L 23.8125 -19.203125 L 23.8125 -18.875 Z M 23.265625 -18.875 "/></g></g></g><g clip-path="url(#b7b13ef3f7)"><path fill="#000000" d="M 200.320312 70.945312 C 207.140625 71.761719 215.007812 69.070312 221.265625 72.863281 C 227.34375 76.546875 226.730469 85.261719 226.449219 91.40625 C 225.816406 105.289062 222.5 121.914062 232.011719 133.738281 C 234.265625 136.539062 237.125 138.8125 240.328125 140.238281 C 238.265625 141.339844 236.363281 142.773438 234.707031 144.425781 C 229.847656 149.277344 227.191406 155.824219 226.144531 162.554688 C 224.964844 170.148438 225.710938 177.796875 226.269531 185.410156 C 226.558594 189.328125 226.789062 193.265625 226.617188 197.195312 C 226.492188 200.035156 226.160156 203.433594 224.1875 205.652344 C 221.898438 208.230469 218 208.878906 214.738281 208.957031 C 210.355469 209.054688 206.023438 208.367188 201.644531 208.890625 C 199.917969 209.097656 198.453125 213.390625 200.855469 213.101562 C 207.722656 212.28125 214.789062 214.578125 221.359375 211.542969 C 227.671875 208.628906 229.691406 201.78125 229.976562 195.316406 C 230.324219 187.429688 229.082031 179.589844 228.882812 171.714844 C 228.703125 164.769531 229.3125 157.363281 232.910156 151.257812 C 236.375 145.375 243.066406 141.382812 249.941406 142.347656 C 251.425781 142.558594 252.988281 139.632812 252.261719 138.496094 C 252.222656 137.835938 251.859375 137.371094 251.011719 137.488281 C 244.804688 138.359375 238.730469 134.953125 234.902344 130.199219 C 230.476562 124.699219 229.007812 117.453125 228.769531 110.535156 C 228.5 102.804688 229.695312 95.125 229.886719 87.410156 C 230.039062 81.160156 229.9375 73.375 224.367188 69.320312 C 217.863281 64.578125 209.253906 67.542969 201.929688 66.664062 C 200.132812 66.441406 198.253906 70.695312 200.320312 70.945312 Z M 200.320312 70.945312 " fill-opacity="1" fill-rule="nonzero"/></g></svg>